<svg width="44" height="40" viewBox="0 0 44 40" fill="none" xmlns="http://www.w3.org/2000/svg">
<circle cx="20" cy="20" r="20" fill="#E0654D"/>
<path d="M15.1378 27V13.9091H20.3026C21.2955 13.9091 22.1413 14.0987 22.8402 14.478C23.5391 14.853 24.0717 15.375 24.4382 16.044C24.8089 16.7088 24.9943 17.4759 24.9943 18.3452C24.9943 19.2145 24.8068 19.9815 24.4318 20.6463C24.0568 21.3111 23.5135 21.8288 22.8018 22.1996C22.0945 22.5703 21.2379 22.7557 20.2322 22.7557H16.9403V20.5376H19.7848C20.3175 20.5376 20.7564 20.446 21.1016 20.2628C21.451 20.0753 21.7109 19.8175 21.8814 19.4893C22.0561 19.157 22.1435 18.7756 22.1435 18.3452C22.1435 17.9105 22.0561 17.5312 21.8814 17.2074C21.7109 16.8793 21.451 16.6257 21.1016 16.4467C20.7521 16.2635 20.3089 16.1719 19.772 16.1719H17.9055V27H15.1378ZM26.7409 27V17.1818H29.3809V18.8949H29.4831C29.6621 18.2855 29.9625 17.8253 30.3844 17.5142C30.8063 17.1989 31.2921 17.0412 31.8418 17.0412C31.9782 17.0412 32.1252 17.0497 32.2828 17.0668C32.4405 17.0838 32.579 17.1072 32.6983 17.1371V19.5533C32.5705 19.5149 32.3936 19.4808 32.1678 19.451C31.9419 19.4212 31.7353 19.4062 31.5478 19.4062C31.1472 19.4062 30.7892 19.4936 30.4739 19.6683C30.1628 19.8388 29.9157 20.0774 29.7324 20.3842C29.5534 20.6911 29.464 21.0447 29.464 21.4453V27H26.7409ZM38.1236 27.1918C37.1136 27.1918 36.2443 26.9872 35.5156 26.5781C34.7912 26.1648 34.233 25.581 33.8409 24.8267C33.4489 24.0682 33.2528 23.1712 33.2528 22.1357C33.2528 21.1257 33.4489 20.2393 33.8409 19.4766C34.233 18.7138 34.7848 18.1193 35.4964 17.6932C36.2124 17.267 37.0518 17.054 38.0149 17.054C38.6626 17.054 39.2656 17.1584 39.8239 17.3672C40.3864 17.5717 40.8764 17.8807 41.294 18.294C41.7159 18.7074 42.044 19.2273 42.2784 19.8537C42.5128 20.4759 42.63 21.2045 42.63 22.0398V22.7876H34.3395V21.1001H40.0668C40.0668 20.7081 39.9815 20.3608 39.8111 20.0582C39.6406 19.7557 39.4041 19.5192 39.1016 19.3487C38.8033 19.174 38.456 19.0866 38.0597 19.0866C37.6463 19.0866 37.2798 19.1825 36.9602 19.3743C36.6449 19.5618 36.3977 19.8153 36.2188 20.1349C36.0398 20.4503 35.9482 20.8018 35.9439 21.1896V22.794C35.9439 23.2798 36.0334 23.6996 36.2124 24.0533C36.3956 24.407 36.6534 24.6797 36.9858 24.8714C37.3182 25.0632 37.7124 25.1591 38.1683 25.1591C38.4709 25.1591 38.7479 25.1165 38.9993 25.0312C39.2507 24.946 39.4659 24.8182 39.6449 24.6477C39.8239 24.4773 39.9602 24.2685 40.054 24.0213L42.5724 24.1875C42.4446 24.7926 42.1825 25.321 41.7862 25.7727C41.3942 26.2202 40.8871 26.5696 40.2649 26.821C39.647 27.0682 38.9332 27.1918 38.1236 27.1918Z" fill="white"/>
</svg>
